ISO-10303-21;
HEADER;
FILE_DESCRIPTION (( 'STEP AP203' ),
    '1' );
FILE_NAME ('parallel pin unhardened_iso - 10.STEP',
    '2022-04-13T08:04:16',
    ( '' ),
    ( '' ),
    'SwSTEP 2.0',
    'SolidWorks 2021',
    '' );
FILE_SCHEMA (( 'CONFIG_CONTROL_DESIGN' ));
ENDSEC;

DATA;
#1 = EDGE_CURVE ( 'NONE', #245, #124, #143, .T. ) ;
#2 = AXIS2_PLACEMENT_3D ( 'NONE', #175, #196, #243 ) ;
#3 = LINE ( 'NONE', #218, #253 ) ;
#4 =( NAMED_UNIT ( * ) PLANE_ANGLE_UNIT ( ) SI_UNIT ( $, .RADIAN. ) );
#5 = ORIENTED_EDGE ( 'NONE', *, *, #1, .F. ) ;
#6 = DIRECTION ( 'NONE',  ( 0.000000000000000000, 0.000000000000000000, 1.000000000000000000 ) ) ;
#7 = ORIENTED_EDGE ( 'NONE', *, *, #145, .F. ) ;
#8 = FACE_OUTER_BOUND ( 'NONE', #118, .T. ) ;
#9 = CARTESIAN_POINT ( 'NONE',  ( 10.00000000000000000, 5.466947754046979141E-16, -4.464101615137753498 ) ) ;
#10 = ADVANCED_FACE ( 'NONE', ( #93 ), #105, .T. ) ;
#11 = PERSON_AND_ORGANIZATION ( #192, #222 ) ;
#12 = ORIENTED_EDGE ( 'NONE', *, *, #70, .F. ) ;
#13 = PRODUCT_DEFINITION_SHAPE ( 'NONE', 'NONE',  #156 ) ;
#14 = APPROVAL_ROLE ( '' ) ;
#15 = APPROVAL ( #63, 'UNSPECIFIED' ) ;
#16 = PERSON_AND_ORGANIZATION_ROLE ( 'classification_officer' ) ;
#17 = CARTESIAN_POINT ( 'NONE',  ( 0.000000000000000000, 0.000000000000000000, 0.000000000000000000 ) ) ;
#18 = VERTEX_POINT ( 'NONE', #189 ) ;
#19 = DIRECTION ( 'NONE',  ( -1.000000000000000000, -0.000000000000000000, -0.000000000000000000 ) ) ;
#20 = ORIENTED_EDGE ( 'NONE', *, *, #1, .T. ) ;
#21 = DIRECTION ( 'NONE',  ( 0.000000000000000000, 0.000000000000000000, 1.000000000000000000 ) ) ;
#22 = AXIS2_PLACEMENT_3D ( 'NONE', #165, #19, #275 ) ;
#23 = PRODUCT_RELATED_PRODUCT_CATEGORY ( 'detail', '', ( #29 ) ) ;
#24 = DIRECTION ( 'NONE',  ( 0.000000000000000000, 0.000000000000000000, 1.000000000000000000 ) ) ;
#25 = CARTESIAN_POINT ( 'NONE',  ( 2.000000000000000000, 0.000000000000000000, 0.000000000000000000 ) ) ;
#26 = CARTESIAN_POINT ( 'NONE',  ( 8.000000000000000000, 0.000000000000000000, 4.999999999999998224 ) ) ;
#27 = EDGE_LOOP ( 'NONE', ( #7, #65 ) ) ;
#28 = DIRECTION ( 'NONE',  ( -0.000000000000000000, 0.000000000000000000, 1.000000000000000000 ) ) ;
#29 = PRODUCT ( 'parallel pin unhardened_iso - 10', 'parallel pin unhardened_iso - 10', '', ( #140 ) ) ;
#30 = UNCERTAINTY_MEASURE_WITH_UNIT (LENGTH_MEASURE( 1.000000000000000082E-05 ), #114, 'distance_accuracy_value', 'NONE');
#31 = PERSON_AND_ORGANIZATION_ROLE ( 'creator' ) ;
#32 = EDGE_CURVE ( 'NONE', #245, #35, #44, .T. ) ;
#33 = PERSON_AND_ORGANIZATION_ROLE ( 'design_supplier' ) ;
#34 = ORIENTED_EDGE ( 'NONE', *, *, #173, .T. ) ;
#35 = VERTEX_POINT ( 'NONE', #68 ) ;
#36 = PERSON_AND_ORGANIZATION ( #192, #222 ) ;
#37 = APPROVAL_PERSON_ORGANIZATION ( #58, #166, #14 ) ;
#38 = AXIS2_PLACEMENT_3D ( 'NONE', #112, #238, #6 ) ;
#39 = ADVANCED_FACE ( 'NONE', ( #148 ), #188, .T. ) ;
#40 = CARTESIAN_POINT ( 'NONE',  ( 2.000000000000000000, 0.000000000000000000, 0.000000000000000000 ) ) ;
#41 = CARTESIAN_POINT ( 'NONE',  ( -6.349999999999999645, 6.123233995736763324E-16, -4.999999999999997335 ) ) ;
#42 = VECTOR ( 'NONE', #45, 1000.000000000000000 ) ;
#43 = EDGE_CURVE ( 'NONE', #274, #85, #200, .T. ) ;
#44 = LINE ( 'NONE', #41, #42 ) ;
#45 = DIRECTION ( 'NONE',  ( -1.000000000000000000, -0.000000000000000000, -0.000000000000000000 ) ) ;
#46 = DIRECTION ( 'NONE',  ( -1.000000000000000000, -0.000000000000000000, -0.000000000000000000 ) ) ;
#47 = LOCAL_TIME ( 13, 34, 16.00000000000000000, #82 ) ;
#48 = AXIS2_PLACEMENT_3D ( 'NONE', #233, #46, #261 ) ;
#49 = LINE ( 'NONE', #263, #99 ) ;
#50 = DIRECTION ( 'NONE',  ( -1.000000000000000000, 0.000000000000000000, -0.000000000000000000 ) ) ;
#51 = ORIENTED_EDGE ( 'NONE', *, *, #145, .T. ) ;
#52 = FACE_OUTER_BOUND ( 'NONE', #79, .T. ) ;
#53 = EDGE_LOOP ( 'NONE', ( #86, #162, #205, #183 ) ) ;
#54 = LOCAL_TIME ( 13, 34, 16.00000000000000000, #80 ) ;
#55 = AXIS2_PLACEMENT_3D ( 'NONE', #219, #258, #235 ) ;
#56 = PLANE ( 'NONE',  #134 ) ;
#57 = ADVANCED_FACE ( 'NONE', ( #251 ), #66, .T. ) ;
#58 = PERSON_AND_ORGANIZATION ( #192, #222 ) ;
#59 = DATE_AND_TIME ( #141, #47 ) ;
#60 = CC_DESIGN_PERSON_AND_ORGANIZATION_ASSIGNMENT ( #100, #33, ( #190 ) ) ;
#61 = CALENDAR_DATE ( 2022, 13, 4 ) ;
#62 = EDGE_LOOP ( 'NONE', ( #267, #230 ) ) ;
#63 = APPROVAL_STATUS ( 'not_yet_approved' ) ;
#64 = AXIS2_PLACEMENT_3D ( 'NONE', #252, #87, #109 ) ;
#65 = ORIENTED_EDGE ( 'NONE', *, *, #173, .F. ) ;
#66 = CYLINDRICAL_SURFACE ( 'NONE', #177, 4.999999999999997335 ) ;
#67 = ADVANCED_FACE ( 'NONE', ( #273 ), #210, .F. ) ;
#68 = CARTESIAN_POINT ( 'NONE',  ( 2.000000000000000000, 6.123233995736762338E-16, -4.999999999999995559 ) ) ;
#69 = CC_DESIGN_APPROVAL ( #111, ( #156 ) ) ;
#70 = EDGE_CURVE ( 'NONE', #85, #35, #146, .T. ) ;
#71 = FACE_OUTER_BOUND ( 'NONE', #102, .T. ) ;
#72 = ORIENTED_EDGE ( 'NONE', *, *, #193, .F. ) ;
#73 = CARTESIAN_POINT ( 'NONE',  ( 10.00000000000000000, 0.000000000000000000, 0.000000000000000000 ) ) ;
#74 = EDGE_CURVE ( 'NONE', #35, #217, #164, .T. ) ;
#75 = DIRECTION ( 'NONE',  ( 0.000000000000000000, 0.000000000000000000, 1.000000000000000000 ) ) ;
#76 = CC_DESIGN_SECURITY_CLASSIFICATION ( #142, ( #190 ) ) ;
#77 = AXIS2_PLACEMENT_3D ( 'NONE', #216, #176, #198 ) ;
#78 = CARTESIAN_POINT ( 'NONE',  ( 0.000000000000000000, 0.000000000000000000, -4.464101615137763268 ) ) ;
#79 = EDGE_LOOP ( 'NONE', ( #207, #104, #158, #12 ) ) ;
#80 = COORDINATED_UNIVERSAL_TIME_OFFSET ( 5, 30, .AHEAD. ) ;
#81 = CC_DESIGN_DATE_AND_TIME_ASSIGNMENT ( #270, #203, ( #142 ) ) ;
#82 = COORDINATED_UNIVERSAL_TIME_OFFSET ( 5, 30, .AHEAD. ) ;
#83 = ORIENTED_EDGE ( 'NONE', *, *, #32, .F. ) ;
#84 = PERSON_AND_ORGANIZATION ( #192, #222 ) ;
#85 = VERTEX_POINT ( 'NONE', #78 ) ;
#86 = ORIENTED_EDGE ( 'NONE', *, *, #94, .F. ) ;
#87 = DIRECTION ( 'NONE',  ( 1.000000000000000000, 0.000000000000000000, 0.000000000000000000 ) ) ;
#88 = DIRECTION ( 'NONE',  ( -1.000000000000000000, -0.000000000000000000, -0.000000000000000000 ) ) ;
#89 = MANIFOLD_SOLID_BREP ( 'Base-Revolve', #91 ) ;
#90 = DIRECTION ( 'NONE',  ( 0.9659258262890699775, 0.000000000000000000, -0.2588190451025148553 ) ) ;
#91 = CLOSED_SHELL ( 'NONE', ( #121, #180, #39, #67, #231, #159, #57, #10 ) ) ;
#92 = CIRCLE ( 'NONE', #2, 4.464101615137753498 ) ;
#93 = FACE_OUTER_BOUND ( 'NONE', #53, .T. ) ;
#94 = EDGE_CURVE ( 'NONE', #274, #217, #3, .T. ) ;
#95 = DIRECTION ( 'NONE',  ( -1.000000000000000000, -0.000000000000000000, -0.000000000000000000 ) ) ;
#96 = EDGE_LOOP ( 'NONE', ( #83, #20, #185, #260 ) ) ;
#97 = CARTESIAN_POINT ( 'NONE',  ( 10.00000000000000000, 1.836970198721029589E-15, 0.000000000000000000 ) ) ;
#98 = CYLINDRICAL_SURFACE ( 'NONE', #38, 4.999999999999997335 ) ;
#99 = VECTOR ( 'NONE', #214, 1000.000000000000000 ) ;
#100 = PERSON_AND_ORGANIZATION ( #192, #222 ) ;
#101 = PERSON_AND_ORGANIZATION ( #192, #222 ) ;
#102 = EDGE_LOOP ( 'NONE', ( #227, #209, #202, #72 ) ) ;
#103 = CALENDAR_DATE ( 2022, 13, 4 ) ;
#104 = ORIENTED_EDGE ( 'NONE', *, *, #94, .T. ) ;
#105 = CONICAL_SURFACE ( 'NONE', #236, 4.999999999999995559, 0.2617993877991433016 ) ;
#106 = APPROVAL_ROLE ( '' ) ;
#107 = CC_DESIGN_PERSON_AND_ORGANIZATION_ASSIGNMENT ( #244, #271, ( #156 ) ) ;
#108 = CARTESIAN_POINT ( 'NONE',  ( 0.000000000000000000, 0.000000000000000000, 0.000000000000000000 ) ) ;
#109 = DIRECTION ( 'NONE',  ( 0.000000000000000000, 0.000000000000000000, -1.000000000000000000 ) ) ;
#110 = AXIS2_PLACEMENT_3D ( 'NONE', #170, #88, #21 ) ;
#111 = APPROVAL ( #186, 'UNSPECIFIED' ) ;
#112 = CARTESIAN_POINT ( 'NONE',  ( -6.349999999999999645, 0.000000000000000000, 0.000000000000000000 ) ) ;
#113 = CARTESIAN_POINT ( 'NONE',  ( 8.000000000000000000, 0.000000000000000000, 0.000000000000000000 ) ) ;
#114 =( LENGTH_UNIT ( ) NAMED_UNIT ( * ) SI_UNIT ( .MILLI., .METRE. ) );
#115 = EDGE_CURVE ( 'NONE', #201, #124, #135, .T. ) ;
#116 = LOCAL_TIME ( 13, 34, 16.00000000000000000, #179 ) ;
#117 = CARTESIAN_POINT ( 'NONE',  ( 10.00000000000000000, 0.000000000000000000, 4.464101615137753498 ) ) ;
#118 = EDGE_LOOP ( 'NONE', ( #240, #34, #225, #5 ) ) ;
#119 = LINE ( 'NONE', #9, #191 ) ;
#120 = COORDINATED_UNIVERSAL_TIME_OFFSET ( 5, 30, .AHEAD. ) ;
#121 = ADVANCED_FACE ( 'NONE', ( #52 ), #264, .T. ) ;
#122 = SHAPE_DEFINITION_REPRESENTATION ( #13, #123 ) ;
#123 = ADVANCED_BREP_SHAPE_REPRESENTATION ( 'parallel pin unhardened_iso - 10', ( #89, #187 ), #168 ) ;
#124 = VERTEX_POINT ( 'NONE', #26 ) ;
#125 = APPROVAL_DATE_TIME ( #181, #111 ) ;
#126 = DATE_AND_TIME ( #61, #182 ) ;
#127 = ORIENTED_EDGE ( 'NONE', *, *, #241, .T. ) ;
#128 = CC_DESIGN_PERSON_AND_ORGANIZATION_ASSIGNMENT ( #138, #16, ( #142 ) ) ;
#129 = DIRECTION ( 'NONE',  ( -1.000000000000000000, -0.000000000000000000, -0.000000000000000000 ) ) ;
#130 = CIRCLE ( 'NONE', #154, 4.999999999999998224 ) ;
#131 = CARTESIAN_POINT ( 'NONE',  ( 8.000000000000000000, 6.123233995736764310E-16, -4.999999999999998224 ) ) ;
#132 = APPROVAL_PERSON_ORGANIZATION ( #36, #111, #136 ) ;
#133 = AXIS2_PLACEMENT_3D ( 'NONE', #108, #256, #211 ) ;
#134 = AXIS2_PLACEMENT_3D ( 'NONE', #97, #50, #28 ) ;
#135 = LINE ( 'NONE', #117, #139 ) ;
#136 = APPROVAL_ROLE ( '' ) ;
#137 = EDGE_CURVE ( 'NONE', #85, #274, #206, .T. ) ;
#138 = PERSON_AND_ORGANIZATION ( #192, #222 ) ;
#139 = VECTOR ( 'NONE', #215, 1000.000000000000114 ) ;
#140 = MECHANICAL_CONTEXT ( 'NONE', #197, 'mechanical' ) ;
#141 = CALENDAR_DATE ( 2022, 13, 4 ) ;
#142 = SECURITY_CLASSIFICATION ( '', '', #204 ) ;
#143 = CIRCLE ( 'NONE', #110, 4.999999999999998224 ) ;
#144 = AXIS2_PLACEMENT_3D ( 'NONE', #174, #239, #153 ) ;
#145 = EDGE_CURVE ( 'NONE', #201, #18, #178, .T. ) ;
#146 = LINE ( 'NONE', #232, #223 ) ;
#147 = EDGE_CURVE ( 'NONE', #217, #35, #213, .T. ) ;
#148 = FACE_OUTER_BOUND ( 'NONE', #269, .T. ) ;
#149 = DIRECTION ( 'NONE',  ( 0.000000000000000000, 0.000000000000000000, -1.000000000000000000 ) ) ;
#150 = DIRECTION ( 'NONE',  ( 0.000000000000000000, 0.000000000000000000, 1.000000000000000000 ) ) ;
#151 = DIRECTION ( 'NONE',  ( -1.000000000000000000, -0.000000000000000000, -0.000000000000000000 ) ) ;
#152 = CARTESIAN_POINT ( 'NONE',  ( 2.000000000000000000, 0.000000000000000000, 4.999999999999995559 ) ) ;
#153 = DIRECTION ( 'NONE',  ( 0.000000000000000000, 0.000000000000000000, 1.000000000000000000 ) ) ;
#154 = AXIS2_PLACEMENT_3D ( 'NONE', #113, #151, #75 ) ;
#155 = APPROVAL_DATE_TIME ( #268, #15 ) ;
#156 = PRODUCT_DEFINITION ( 'UNKNOWN', '', #190, #234 ) ;
#157 = DATE_TIME_ROLE ( 'creation_date' ) ;
#158 = ORIENTED_EDGE ( 'NONE', *, *, #147, .T. ) ;
#159 = ADVANCED_FACE ( 'NONE', ( #8 ), #169, .T. ) ;
#160 = APPROVAL_DATE_TIME ( #59, #166 ) ;
#161 = APPROVAL_STATUS ( 'not_yet_approved' ) ;
#162 = ORIENTED_EDGE ( 'NONE', *, *, #137, .F. ) ;
#163 = APPROVAL_PERSON_ORGANIZATION ( #101, #15, #106 ) ;
#164 = CIRCLE ( 'NONE', #48, 4.999999999999995559 ) ;
#165 = CARTESIAN_POINT ( 'NONE',  ( 10.00000000000000000, 0.000000000000000000, 0.000000000000000000 ) ) ;
#166 = APPROVAL ( #161, 'UNSPECIFIED' ) ;
#167 = DIRECTION ( 'NONE',  ( 0.000000000000000000, 0.000000000000000000, 1.000000000000000000 ) ) ;
#168 =( GEOMETRIC_REPRESENTATION_CONTEXT ( 3 ) GLOBAL_UNCERTAINTY_ASSIGNED_CONTEXT ( ( #30 ) ) GLOBAL_UNIT_ASSIGNED_CONTEXT ( ( #114, #4, #242 ) ) REPRESENTATION_CONTEXT ( 'NONE', 'WORKASPACE' ) );
#169 = CONICAL_SURFACE ( 'NONE', #77, 4.464101615137753498, 0.2617993877991493523 ) ;
#170 = CARTESIAN_POINT ( 'NONE',  ( 8.000000000000000000, 0.000000000000000000, 0.000000000000000000 ) ) ;
#171 = CARTESIAN_POINT ( 'NONE',  ( -6.349999999999999645, 0.000000000000000000, 0.000000000000000000 ) ) ;
#172 = CARTESIAN_POINT ( 'NONE',  ( 0.000000000000000000, 5.795090874891876656E-16, 4.464101615137763268 ) ) ;
#173 = EDGE_CURVE ( 'NONE', #18, #201, #92, .T. ) ;
#174 = CARTESIAN_POINT ( 'NONE',  ( 0.000000000000000000, 0.000000000000000000, 0.000000000000000000 ) ) ;
#175 = CARTESIAN_POINT ( 'NONE',  ( 10.00000000000000000, 0.000000000000000000, 0.000000000000000000 ) ) ;
#176 = DIRECTION ( 'NONE',  ( -1.000000000000000000, -0.000000000000000000, -0.000000000000000000 ) ) ;
#177 = AXIS2_PLACEMENT_3D ( 'NONE', #171, #272, #167 ) ;
#178 = CIRCLE ( 'NONE', #229, 4.464101615137753498 ) ;
#179 = COORDINATED_UNIVERSAL_TIME_OFFSET ( 5, 30, .AHEAD. ) ;
#180 = ADVANCED_FACE ( 'NONE', ( #71 ), #98, .T. ) ;
#181 = DATE_AND_TIME ( #226, #247 ) ;
#182 = LOCAL_TIME ( 13, 34, 16.00000000000000000, #224 ) ;
#183 = ORIENTED_EDGE ( 'NONE', *, *, #74, .T. ) ;
#184 = DIRECTION ( 'NONE',  ( 0.000000000000000000, 0.000000000000000000, 1.000000000000000000 ) ) ;
#185 = ORIENTED_EDGE ( 'NONE', *, *, #193, .T. ) ;
#186 = APPROVAL_STATUS ( 'not_yet_approved' ) ;
#187 = AXIS2_PLACEMENT_3D ( 'NONE', #17, #184, #266 ) ;
#188 = CONICAL_SURFACE ( 'NONE', #22, 4.464101615137753498, 0.2617993877991493523 ) ;
#189 = CARTESIAN_POINT ( 'NONE',  ( 10.00000000000000000, 5.795090874891871726E-16, -4.464101615137753498 ) ) ;
#190 = PRODUCT_DEFINITION_FORMATION_WITH_SPECIFIED_SOURCE ( 'ANY', '', #29, .NOT_KNOWN. ) ;
#191 = VECTOR ( 'NONE', #257, 1000.000000000000114 ) ;
#192 = PERSON ( 'UNSPECIFIED', 'UNSPECIFIED', 'UNSPECIFIED', ('UNSPECIFIED'), ('UNSPECIFIED'), ('UNSPECIFIED') ) ;
#193 = EDGE_CURVE ( 'NONE', #124, #217, #49, .T. ) ;
#194 = FACE_OUTER_BOUND ( 'NONE', #27, .T. ) ;
#195 = DIRECTION ( 'NONE',  ( 0.9659258262890699775, 3.169619151431693451E-17, 0.2588190451025148553 ) ) ;
#196 = DIRECTION ( 'NONE',  ( -1.000000000000000000, -0.000000000000000000, -0.000000000000000000 ) ) ;
#197 = APPLICATION_CONTEXT ( 'configuration controlled 3d designs of mechanical parts and assemblies' ) ;
#198 = DIRECTION ( 'NONE',  ( 0.000000000000000000, 0.000000000000000000, 1.000000000000000000 ) ) ;
#199 = CC_DESIGN_APPROVAL ( #166, ( #142 ) ) ;
#200 = CIRCLE ( 'NONE', #133, 4.464101615137763268 ) ;
#201 = VERTEX_POINT ( 'NONE', #262 ) ;
#202 = ORIENTED_EDGE ( 'NONE', *, *, #147, .F. ) ;
#203 = DATE_TIME_ROLE ( 'classification_date' ) ;
#204 = SECURITY_CLASSIFICATION_LEVEL ( 'unclassified' ) ;
#205 = ORIENTED_EDGE ( 'NONE', *, *, #70, .T. ) ;
#206 = CIRCLE ( 'NONE', #144, 4.464101615137763268 ) ;
#207 = ORIENTED_EDGE ( 'NONE', *, *, #43, .F. ) ;
#208 = CC_DESIGN_PERSON_AND_ORGANIZATION_ASSIGNMENT ( #11, #220, ( #29 ) ) ;
#209 = ORIENTED_EDGE ( 'NONE', *, *, #32, .T. ) ;
#210 = PLANE ( 'NONE',  #64 ) ;
#211 = DIRECTION ( 'NONE',  ( 0.000000000000000000, 0.000000000000000000, 1.000000000000000000 ) ) ;
#212 = ORIENTED_EDGE ( 'NONE', *, *, #115, .F. ) ;
#213 = CIRCLE ( 'NONE', #250, 4.999999999999995559 ) ;
#214 = DIRECTION ( 'NONE',  ( -1.000000000000000000, -0.000000000000000000, -0.000000000000000000 ) ) ;
#215 = DIRECTION ( 'NONE',  ( -0.9659258262890683122, 0.000000000000000000, 0.2588190451025206840 ) ) ;
#216 = CARTESIAN_POINT ( 'NONE',  ( 10.00000000000000000, 0.000000000000000000, 0.000000000000000000 ) ) ;
#217 = VERTEX_POINT ( 'NONE', #152 ) ;
#218 = CARTESIAN_POINT ( 'NONE',  ( 2.000000000000000000, 6.123233995736761352E-16, 4.999999999999995559 ) ) ;
#219 = CARTESIAN_POINT ( 'NONE',  ( 2.000000000000000000, 0.000000000000000000, 0.000000000000000000 ) ) ;
#220 = PERSON_AND_ORGANIZATION_ROLE ( 'design_owner' ) ;
#221 = EDGE_CURVE ( 'NONE', #124, #245, #130, .T. ) ;
#222 = ORGANIZATION ( 'UNSPECIFIED', 'UNSPECIFIED', '' ) ;
#223 = VECTOR ( 'NONE', #90, 999.9999999999998863 ) ;
#224 = COORDINATED_UNIVERSAL_TIME_OFFSET ( 5, 30, .AHEAD. ) ;
#225 = ORIENTED_EDGE ( 'NONE', *, *, #115, .T. ) ;
#226 = CALENDAR_DATE ( 2022, 13, 4 ) ;
#227 = ORIENTED_EDGE ( 'NONE', *, *, #221, .T. ) ;
#228 = CC_DESIGN_APPROVAL ( #15, ( #190 ) ) ;
#229 = AXIS2_PLACEMENT_3D ( 'NONE', #73, #129, #24 ) ;
#230 = ORIENTED_EDGE ( 'NONE', *, *, #43, .T. ) ;
#231 = ADVANCED_FACE ( 'NONE', ( #194 ), #56, .F. ) ;
#232 = CARTESIAN_POINT ( 'NONE',  ( 2.000000000000000000, 0.000000000000000000, -4.999999999999995559 ) ) ;
#233 = CARTESIAN_POINT ( 'NONE',  ( 2.000000000000000000, 0.000000000000000000, 0.000000000000000000 ) ) ;
#234 = DESIGN_CONTEXT ( 'detailed design', #237, 'design' ) ;
#235 = DIRECTION ( 'NONE',  ( 0.000000000000000000, 0.000000000000000000, -1.000000000000000000 ) ) ;
#236 = AXIS2_PLACEMENT_3D ( 'NONE', #40, #254, #149 ) ;
#237 = APPLICATION_CONTEXT ( 'configuration controlled 3d designs of mechanical parts and assemblies' ) ;
#238 = DIRECTION ( 'NONE',  ( -1.000000000000000000, -0.000000000000000000, -0.000000000000000000 ) ) ;
#239 = DIRECTION ( 'NONE',  ( -1.000000000000000000, -0.000000000000000000, -0.000000000000000000 ) ) ;
#240 = ORIENTED_EDGE ( 'NONE', *, *, #241, .F. ) ;
#241 = EDGE_CURVE ( 'NONE', #18, #245, #119, .T. ) ;
#242 =( NAMED_UNIT ( * ) SI_UNIT ( $, .STERADIAN. ) SOLID_ANGLE_UNIT ( ) );
#243 = DIRECTION ( 'NONE',  ( 0.000000000000000000, 0.000000000000000000, 1.000000000000000000 ) ) ;
#244 = PERSON_AND_ORGANIZATION ( #192, #222 ) ;
#245 = VERTEX_POINT ( 'NONE', #131 ) ;
#246 = APPLICATION_PROTOCOL_DEFINITION ( 'international standard', 'config_control_design', 1994, #237 ) ;
#247 = LOCAL_TIME ( 13, 34, 16.00000000000000000, #120 ) ;
#248 = ORIENTED_EDGE ( 'NONE', *, *, #221, .F. ) ;
#249 = APPLICATION_PROTOCOL_DEFINITION ( 'international standard', 'config_control_design', 1994, #197 ) ;
#250 = AXIS2_PLACEMENT_3D ( 'NONE', #25, #95, #150 ) ;
#251 = FACE_OUTER_BOUND ( 'NONE', #96, .T. ) ;
#252 = CARTESIAN_POINT ( 'NONE',  ( 2.620133485876527328E-17, 4.464101615137763268, 0.000000000000000000 ) ) ;
#253 = VECTOR ( 'NONE', #195, 999.9999999999998863 ) ;
#254 = DIRECTION ( 'NONE',  ( 1.000000000000000000, 0.000000000000000000, 0.000000000000000000 ) ) ;
#255 = CC_DESIGN_PERSON_AND_ORGANIZATION_ASSIGNMENT ( #84, #31, ( #190 ) ) ;
#256 = DIRECTION ( 'NONE',  ( -1.000000000000000000, -0.000000000000000000, -0.000000000000000000 ) ) ;
#257 = DIRECTION ( 'NONE',  ( -0.9659258262890683122, 3.169619151431763092E-17, -0.2588190451025206840 ) ) ;
#258 = DIRECTION ( 'NONE',  ( 1.000000000000000000, 0.000000000000000000, 0.000000000000000000 ) ) ;
#259 = CC_DESIGN_DATE_AND_TIME_ASSIGNMENT ( #126, #157, ( #156 ) ) ;
#260 = ORIENTED_EDGE ( 'NONE', *, *, #74, .F. ) ;
#261 = DIRECTION ( 'NONE',  ( 0.000000000000000000, 0.000000000000000000, 1.000000000000000000 ) ) ;
#262 = CARTESIAN_POINT ( 'NONE',  ( 10.00000000000000000, 0.000000000000000000, 4.464101615137753498 ) ) ;
#263 = CARTESIAN_POINT ( 'NONE',  ( -6.349999999999999645, 0.000000000000000000, 4.999999999999997335 ) ) ;
#264 = CONICAL_SURFACE ( 'NONE', #55, 4.999999999999995559, 0.2617993877991433016 ) ;
#265 = CALENDAR_DATE ( 2022, 13, 4 ) ;
#266 = DIRECTION ( 'NONE',  ( 1.000000000000000000, 0.000000000000000000, 0.000000000000000000 ) ) ;
#267 = ORIENTED_EDGE ( 'NONE', *, *, #137, .T. ) ;
#268 = DATE_AND_TIME ( #103, #54 ) ;
#269 = EDGE_LOOP ( 'NONE', ( #51, #127, #248, #212 ) ) ;
#270 = DATE_AND_TIME ( #265, #116 ) ;
#271 = PERSON_AND_ORGANIZATION_ROLE ( 'creator' ) ;
#272 = DIRECTION ( 'NONE',  ( -1.000000000000000000, -0.000000000000000000, -0.000000000000000000 ) ) ;
#273 = FACE_OUTER_BOUND ( 'NONE', #62, .T. ) ;
#274 = VERTEX_POINT ( 'NONE', #172 ) ;
#275 = DIRECTION ( 'NONE',  ( 0.000000000000000000, 0.000000000000000000, 1.000000000000000000 ) ) ;
ENDSEC;
END-ISO-10303-21;
