ISO-10303-21;
HEADER;
FILE_DESCRIPTION (( 'STEP AP203' ),
    '1' );
FILE_NAME ('parallel pin unhardened_iso.STEP',
    '2022-04-13T08:00:38',
    ( '' ),
    ( '' ),
    'SwSTEP 2.0',
    'SolidWorks 2021',
    '' );
FILE_SCHEMA (( 'CONFIG_CONTROL_DESIGN' ));
ENDSEC;

DATA;
#1 = AXIS2_PLACEMENT_3D ( 'NONE', #79, #105, #194 ) ;
#2 = ADVANCED_FACE ( 'NONE', ( #110 ), #223, .T. ) ;
#3 = APPROVAL_DATE_TIME ( #195, #241 ) ;
#4 = CARTESIAN_POINT ( 'NONE',  ( 50.00000000000000000, 9.184850993605148733E-15, 0.000000000000000000 ) ) ;
#5 = APPLICATION_PROTOCOL_DEFINITION ( 'international standard', 'config_control_design', 1994, #159 ) ;
#6 = APPROVAL ( #12, 'UNSPECIFIED' ) ;
#7 = ORIENTED_EDGE ( 'NONE', *, *, #203, .T. ) ;
#8 = AXIS2_PLACEMENT_3D ( 'NONE', #212, #271, #253 ) ;
#9 = VECTOR ( 'NONE', #18, 1000.000000000000114 ) ;
#10 = PERSON_AND_ORGANIZATION ( #119, #107 ) ;
#11 = APPROVAL_DATE_TIME ( #218, #249 ) ;
#12 = APPROVAL_STATUS ( 'not_yet_approved' ) ;
#13 = APPROVAL_PERSON_ORGANIZATION ( #88, #241, #106 ) ;
#14 = EDGE_LOOP ( 'NONE', ( #177, #261, #216, #15 ) ) ;
#15 = ORIENTED_EDGE ( 'NONE', *, *, #112, .F. ) ;
#16 = CYLINDRICAL_SURFACE ( 'NONE', #150, 7.499999999999992895 ) ;
#17 = AXIS2_PLACEMENT_3D ( 'NONE', #74, #164, #29 ) ;
#18 = DIRECTION ( 'NONE',  ( -0.9659258262890680902, 0.000000000000000000, 0.2588190451025211281 ) ) ;
#19 = DIRECTION ( 'NONE',  ( -1.000000000000000000, -0.000000000000000000, -0.000000000000000000 ) ) ;
#20 = FACE_OUTER_BOUND ( 'NONE', #247, .T. ) ;
#21 = CC_DESIGN_APPROVAL ( #6, ( #100 ) ) ;
#22 = AXIS2_PLACEMENT_3D ( 'NONE', #270, #82, #226 ) ;
#23 = CARTESIAN_POINT ( 'NONE',  ( 3.000000000000000888, 0.000000000000000000, 7.499999999999985789 ) ) ;
#24 = FACE_OUTER_BOUND ( 'NONE', #156, .T. ) ;
#25 = APPLICATION_PROTOCOL_DEFINITION ( 'international standard', 'config_control_design', 1994, #175 ) ;
#26 = LOCAL_TIME ( 13, 30, 38.00000000000000000, #108 ) ;
#27 = COORDINATED_UNIVERSAL_TIME_OFFSET ( 5, 30, .AHEAD. ) ;
#28 = VERTEX_POINT ( 'NONE', #113 ) ;
#29 = DIRECTION ( 'NONE',  ( 0.000000000000000000, 0.000000000000000000, 1.000000000000000000 ) ) ;
#30 = CIRCLE ( 'NONE', #163, 7.499999999999999112 ) ;
#31 = PERSON_AND_ORGANIZATION ( #119, #107 ) ;
#32 = COORDINATED_UNIVERSAL_TIME_OFFSET ( 5, 30, .AHEAD. ) ;
#33 = VERTEX_POINT ( 'NONE', #221 ) ;
#34 = VERTEX_POINT ( 'NONE', #206 ) ;
#35 = ADVANCED_FACE ( 'NONE', ( #183 ), #16, .T. ) ;
#36 = ORIENTED_EDGE ( 'NONE', *, *, #92, .F. ) ;
#37 = DIRECTION ( 'NONE',  ( -1.000000000000000000, -0.000000000000000000, -0.000000000000000000 ) ) ;
#38 = LINE ( 'NONE', #148, #129 ) ;
#39 = ADVANCED_FACE ( 'NONE', ( #187 ), #186, .T. ) ;
#40 = DIRECTION ( 'NONE',  ( 0.000000000000000000, 0.000000000000000000, 1.000000000000000000 ) ) ;
#41 = CARTESIAN_POINT ( 'NONE',  ( -6.349999999999999645, 9.184850993605140056E-16, -7.499999999999992895 ) ) ;
#42 = AXIS2_PLACEMENT_3D ( 'NONE', #80, #37, #189 ) ;
#43 = DIRECTION ( 'NONE',  ( -1.000000000000000000, -0.000000000000000000, -0.000000000000000000 ) ) ;
#44 =( LENGTH_UNIT ( ) NAMED_UNIT ( * ) SI_UNIT ( .MILLI., .METRE. ) );
#45 = EDGE_CURVE ( 'NONE', #94, #217, #234, .T. ) ;
#46 = PERSON_AND_ORGANIZATION_ROLE ( 'design_supplier' ) ;
#47 = PERSON_AND_ORGANIZATION ( #119, #107 ) ;
#48 = AXIS2_PLACEMENT_3D ( 'NONE', #99, #274, #208 ) ;
#49 = DATE_AND_TIME ( #181, #138 ) ;
#50 = ORIENTED_EDGE ( 'NONE', *, *, #102, .T. ) ;
#51 = PRODUCT_DEFINITION_SHAPE ( 'NONE', 'NONE',  #179 ) ;
#52 = EDGE_CURVE ( 'NONE', #56, #33, #38, .T. ) ;
#53 = SHAPE_DEFINITION_REPRESENTATION ( #51, #246 ) ;
#54 = LOCAL_TIME ( 13, 30, 38.00000000000000000, #27 ) ;
#55 = CIRCLE ( 'NONE', #42, 6.696152422706637353 ) ;
#56 = VERTEX_POINT ( 'NONE', #254 ) ;
#57 = APPROVAL_DATE_TIME ( #49, #6 ) ;
#58 = ORIENTED_EDGE ( 'NONE', *, *, #220, .F. ) ;
#59 = CARTESIAN_POINT ( 'NONE',  ( 50.00000000000000000, 0.000000000000000000, 0.000000000000000000 ) ) ;
#60 = CARTESIAN_POINT ( 'NONE',  ( 3.000000000000000888, 0.000000000000000000, 0.000000000000000000 ) ) ;
#61 = CARTESIAN_POINT ( 'NONE',  ( 50.00000000000000000, 8.692636312337808081E-16, -6.696152422706628471 ) ) ;
#62 = CARTESIAN_POINT ( 'NONE',  ( 50.00000000000000000, 0.000000000000000000, 6.696152422706628471 ) ) ;
#63 = CARTESIAN_POINT ( 'NONE',  ( 3.000000000000000888, 9.184850993605132167E-16, 7.499999999999985789 ) ) ;
#64 = APPROVAL_PERSON_ORGANIZATION ( #243, #6, #160 ) ;
#65 = VECTOR ( 'NONE', #188, 1000.000000000000114 ) ;
#66 = MANIFOLD_SOLID_BREP ( 'Base-Revolve', #69 ) ;
#67 = APPROVAL_ROLE ( '' ) ;
#68 = VECTOR ( 'NONE', #196, 1000.000000000000000 ) ;
#69 = CLOSED_SHELL ( 'NONE', ( #81, #35, #2, #146, #252, #39, #237, #214 ) ) ;
#70 = ORIENTED_EDGE ( 'NONE', *, *, #92, .T. ) ;
#71 = PERSON_AND_ORGANIZATION_ROLE ( 'design_owner' ) ;
#72 = CC_DESIGN_DATE_AND_TIME_ASSIGNMENT ( #176, #260, ( #100 ) ) ;
#73 = CONICAL_SURFACE ( 'NONE', #1, 7.499999999999985789, 0.2617993877991432461 ) ;
#74 = CARTESIAN_POINT ( 'NONE',  ( 50.00000000000000000, 0.000000000000000000, 0.000000000000000000 ) ) ;
#75 = CIRCLE ( 'NONE', #48, 7.499999999999999112 ) ;
#76 = ORIENTED_EDGE ( 'NONE', *, *, #190, .F. ) ;
#77 = DIRECTION ( 'NONE',  ( 0.000000000000000000, 0.000000000000000000, 1.000000000000000000 ) ) ;
#78 = FACE_OUTER_BOUND ( 'NONE', #118, .T. ) ;
#79 = CARTESIAN_POINT ( 'NONE',  ( 3.000000000000000888, 0.000000000000000000, 0.000000000000000000 ) ) ;
#80 = CARTESIAN_POINT ( 'NONE',  ( 0.000000000000000000, 0.000000000000000000, 0.000000000000000000 ) ) ;
#81 = ADVANCED_FACE ( 'NONE', ( #83 ), #95, .T. ) ;
#82 = DIRECTION ( 'NONE',  ( 1.000000000000000000, 0.000000000000000000, 0.000000000000000000 ) ) ;
#83 = FACE_OUTER_BOUND ( 'NONE', #244, .T. ) ;
#84 = CIRCLE ( 'NONE', #8, 6.696152422706628471 ) ;
#85 = PERSON_AND_ORGANIZATION ( #119, #107 ) ;
#86 = CARTESIAN_POINT ( 'NONE',  ( -6.349999999999999645, 0.000000000000000000, 7.499999999999992895 ) ) ;
#87 = EDGE_CURVE ( 'NONE', #34, #33, #233, .T. ) ;
#88 = PERSON_AND_ORGANIZATION ( #119, #107 ) ;
#89 = ORIENTED_EDGE ( 'NONE', *, *, #170, .T. ) ;
#90 = VECTOR ( 'NONE', #19, 1000.000000000000000 ) ;
#91 = PERSON_AND_ORGANIZATION_ROLE ( 'creator' ) ;
#92 = EDGE_CURVE ( 'NONE', #144, #33, #139, .T. ) ;
#93 = ORIENTED_EDGE ( 'NONE', *, *, #154, .T. ) ;
#94 = VERTEX_POINT ( 'NONE', #209 ) ;
#95 = CONICAL_SURFACE ( 'NONE', #259, 7.499999999999985789, 0.2617993877991432461 ) ;
#96 = DIRECTION ( 'NONE',  ( 0.000000000000000000, 0.000000000000000000, 1.000000000000000000 ) ) ;
#97 = CC_DESIGN_DATE_AND_TIME_ASSIGNMENT ( #262, #240, ( #179 ) ) ;
#98 = DIRECTION ( 'NONE',  ( 0.000000000000000000, 0.000000000000000000, 1.000000000000000000 ) ) ;
#99 = CARTESIAN_POINT ( 'NONE',  ( 47.00000000000000000, 0.000000000000000000, 0.000000000000000000 ) ) ;
#100 = SECURITY_CLASSIFICATION ( '', '', #202 ) ;
#101 = PLANE ( 'NONE',  #191 ) ;
#102 = EDGE_CURVE ( 'NONE', #34, #120, #75, .T. ) ;
#103 = ORIENTED_EDGE ( 'NONE', *, *, #87, .F. ) ;
#104 = CARTESIAN_POINT ( 'NONE',  ( 0.000000000000000000, 0.000000000000000000, 0.000000000000000000 ) ) ;
#105 = DIRECTION ( 'NONE',  ( 1.000000000000000000, 0.000000000000000000, 0.000000000000000000 ) ) ;
#106 = APPROVAL_ROLE ( '' ) ;
#107 = ORGANIZATION ( 'UNSPECIFIED', 'UNSPECIFIED', '' ) ;
#108 = COORDINATED_UNIVERSAL_TIME_OFFSET ( 5, 30, .AHEAD. ) ;
#109 = CALENDAR_DATE ( 2022, 13, 4 ) ;
#110 = FACE_OUTER_BOUND ( 'NONE', #14, .T. ) ;
#111 = CARTESIAN_POINT ( 'NONE',  ( 0.000000000000000000, 0.000000000000000000, 0.000000000000000000 ) ) ;
#112 = EDGE_CURVE ( 'NONE', #94, #120, #130, .T. ) ;
#113 = CARTESIAN_POINT ( 'NONE',  ( 0.000000000000000000, 8.692636312337806109E-16, 6.696152422706637353 ) ) ;
#114 = AXIS2_PLACEMENT_3D ( 'NONE', #210, #43, #125 ) ;
#115 =( NAMED_UNIT ( * ) PLANE_ANGLE_UNIT ( ) SI_UNIT ( $, .RADIAN. ) );
#116 = AXIS2_PLACEMENT_3D ( 'NONE', #147, #231, #40 ) ;
#117 = ORIENTED_EDGE ( 'NONE', *, *, #265, .F. ) ;
#118 = EDGE_LOOP ( 'NONE', ( #7, #93 ) ) ;
#119 = PERSON ( 'UNSPECIFIED', 'UNSPECIFIED', 'UNSPECIFIED', ('UNSPECIFIED'), ('UNSPECIFIED'), ('UNSPECIFIED') ) ;
#120 = VERTEX_POINT ( 'NONE', #128 ) ;
#121 = ORIENTED_EDGE ( 'NONE', *, *, #87, .T. ) ;
#122 = AXIS2_PLACEMENT_3D ( 'NONE', #104, #149, #235 ) ;
#123 = DIRECTION ( 'NONE',  ( 0.9659258262890699775, 0.000000000000000000, -0.2588190451025147998 ) ) ;
#124 = ORIENTED_EDGE ( 'NONE', *, *, #170, .F. ) ;
#125 = DIRECTION ( 'NONE',  ( 0.000000000000000000, 0.000000000000000000, 1.000000000000000000 ) ) ;
#126 = CC_DESIGN_PERSON_AND_ORGANIZATION_ASSIGNMENT ( #10, #71, ( #200 ) ) ;
#127 = FACE_OUTER_BOUND ( 'NONE', #199, .T. ) ;
#128 = CARTESIAN_POINT ( 'NONE',  ( 47.00000000000000000, 0.000000000000000000, 7.499999999999999112 ) ) ;
#129 = VECTOR ( 'NONE', #123, 999.9999999999998863 ) ;
#130 = LINE ( 'NONE', #62, #9 ) ;
#131 = DIRECTION ( 'NONE',  ( -0.000000000000000000, 0.000000000000000000, 1.000000000000000000 ) ) ;
#132 = EDGE_LOOP ( 'NONE', ( #204, #182, #245, #224 ) ) ;
#133 = MECHANICAL_CONTEXT ( 'NONE', #159, 'mechanical' ) ;
#134 = PERSON_AND_ORGANIZATION ( #119, #107 ) ;
#135 = ORIENTED_EDGE ( 'NONE', *, *, #265, .T. ) ;
#136 = APPROVAL_STATUS ( 'not_yet_approved' ) ;
#137 = EDGE_CURVE ( 'NONE', #120, #34, #30, .T. ) ;
#138 = LOCAL_TIME ( 13, 30, 38.00000000000000000, #32 ) ;
#139 = CIRCLE ( 'NONE', #219, 7.499999999999985789 ) ;
#140 = DIRECTION ( 'NONE',  ( -1.000000000000000000, -0.000000000000000000, -0.000000000000000000 ) ) ;
#141 = ORIENTED_EDGE ( 'NONE', *, *, #52, .F. ) ;
#142 = EDGE_CURVE ( 'NONE', #217, #34, #255, .T. ) ;
#143 = DIRECTION ( 'NONE',  ( 0.000000000000000000, 0.000000000000000000, 1.000000000000000000 ) ) ;
#144 = VERTEX_POINT ( 'NONE', #23 ) ;
#145 = CARTESIAN_POINT ( 'NONE',  ( 3.000000000000000888, 0.000000000000000000, 0.000000000000000000 ) ) ;
#146 = ADVANCED_FACE ( 'NONE', ( #78 ), #165, .F. ) ;
#147 = CARTESIAN_POINT ( 'NONE',  ( -6.349999999999999645, 0.000000000000000000, 0.000000000000000000 ) ) ;
#148 = CARTESIAN_POINT ( 'NONE',  ( 3.000000000000000888, 0.000000000000000000, -7.499999999999985789 ) ) ;
#149 = DIRECTION ( 'NONE',  ( -1.000000000000000000, -0.000000000000000000, -0.000000000000000000 ) ) ;
#150 = AXIS2_PLACEMENT_3D ( 'NONE', #266, #140, #96 ) ;
#151 = LINE ( 'NONE', #86, #68 ) ;
#152 = PERSON_AND_ORGANIZATION_ROLE ( 'creator' ) ;
#153 = CIRCLE ( 'NONE', #122, 6.696152422706637353 ) ;
#154 = EDGE_CURVE ( 'NONE', #28, #56, #55, .T. ) ;
#155 =( NAMED_UNIT ( * ) SI_UNIT ( $, .STERADIAN. ) SOLID_ANGLE_UNIT ( ) );
#156 = EDGE_LOOP ( 'NONE', ( #124, #264, #228, #225 ) ) ;
#157 = COORDINATED_UNIVERSAL_TIME_OFFSET ( 5, 30, .AHEAD. ) ;
#158 = LOCAL_TIME ( 13, 30, 38.00000000000000000, #173 ) ;
#159 = APPLICATION_CONTEXT ( 'configuration controlled 3d designs of mechanical parts and assemblies' ) ;
#160 = APPROVAL_ROLE ( '' ) ;
#161 = EDGE_LOOP ( 'NONE', ( #248, #121, #36, #117 ) ) ;
#162 = PRODUCT_DEFINITION_FORMATION_WITH_SPECIFIED_SOURCE ( 'ANY', '', #200, .NOT_KNOWN. ) ;
#163 = AXIS2_PLACEMENT_3D ( 'NONE', #273, #172, #98 ) ;
#164 = DIRECTION ( 'NONE',  ( -1.000000000000000000, -0.000000000000000000, -0.000000000000000000 ) ) ;
#165 = PLANE ( 'NONE',  #22 ) ;
#166 = CC_DESIGN_APPROVAL ( #241, ( #179 ) ) ;
#167 = CYLINDRICAL_SURFACE ( 'NONE', #116, 7.499999999999992895 ) ;
#168 = DIRECTION ( 'NONE',  ( 0.000000000000000000, 0.000000000000000000, -1.000000000000000000 ) ) ;
#169 = DIRECTION ( 'NONE',  ( 0.000000000000000000, 0.000000000000000000, 1.000000000000000000 ) ) ;
#170 = EDGE_CURVE ( 'NONE', #28, #144, #250, .T. ) ;
#171 = AXIS2_PLACEMENT_3D ( 'NONE', #60, #229, #143 ) ;
#172 = DIRECTION ( 'NONE',  ( -1.000000000000000000, -0.000000000000000000, -0.000000000000000000 ) ) ;
#173 = COORDINATED_UNIVERSAL_TIME_OFFSET ( 5, 30, .AHEAD. ) ;
#174 = DIRECTION ( 'NONE',  ( 0.000000000000000000, 0.000000000000000000, 1.000000000000000000 ) ) ;
#175 = APPLICATION_CONTEXT ( 'configuration controlled 3d designs of mechanical parts and assemblies' ) ;
#176 = DATE_AND_TIME ( #109, #54 ) ;
#177 = ORIENTED_EDGE ( 'NONE', *, *, #45, .T. ) ;
#178 = CALENDAR_DATE ( 2022, 13, 4 ) ;
#179 = PRODUCT_DEFINITION ( 'UNKNOWN', '', #162, #230 ) ;
#180 = CIRCLE ( 'NONE', #171, 7.499999999999985789 ) ;
#181 = CALENDAR_DATE ( 2022, 13, 4 ) ;
#182 = ORIENTED_EDGE ( 'NONE', *, *, #190, .T. ) ;
#183 = FACE_OUTER_BOUND ( 'NONE', #161, .T. ) ;
#184 = CC_DESIGN_PERSON_AND_ORGANIZATION_ASSIGNMENT ( #31, #152, ( #162 ) ) ;
#185 = ORIENTED_EDGE ( 'NONE', *, *, #45, .F. ) ;
#186 = CONICAL_SURFACE ( 'NONE', #201, 6.696152422706628471, 0.2617993877991498519 ) ;
#187 = FACE_OUTER_BOUND ( 'NONE', #132, .T. ) ;
#188 = DIRECTION ( 'NONE',  ( -0.9659258262890680902, 3.169619151431769872E-17, -0.2588190451025211281 ) ) ;
#189 = DIRECTION ( 'NONE',  ( 0.000000000000000000, 0.000000000000000000, 1.000000000000000000 ) ) ;
#190 = EDGE_CURVE ( 'NONE', #217, #94, #84, .T. ) ;
#191 = AXIS2_PLACEMENT_3D ( 'NONE', #4, #256, #131 ) ;
#192 = CARTESIAN_POINT ( 'NONE',  ( 3.000000000000000888, 0.000000000000000000, 0.000000000000000000 ) ) ;
#193 = CARTESIAN_POINT ( 'NONE',  ( 50.00000000000000000, 8.200421631070467232E-16, -6.696152422706628471 ) ) ;
#194 = DIRECTION ( 'NONE',  ( 0.000000000000000000, 0.000000000000000000, -1.000000000000000000 ) ) ;
#195 = DATE_AND_TIME ( #257, #26 ) ;
#196 = DIRECTION ( 'NONE',  ( -1.000000000000000000, -0.000000000000000000, -0.000000000000000000 ) ) ;
#197 = CC_DESIGN_PERSON_AND_ORGANIZATION_ASSIGNMENT ( #85, #91, ( #179 ) ) ;
#198 = APPROVAL_STATUS ( 'not_yet_approved' ) ;
#199 = EDGE_LOOP ( 'NONE', ( #103, #50, #135, #58 ) ) ;
#200 = PRODUCT ( 'parallel pin unhardened_iso', 'parallel pin unhardened_iso', '', ( #133 ) ) ;
#201 = AXIS2_PLACEMENT_3D ( 'NONE', #59, #269, #77 ) ;
#202 = SECURITY_CLASSIFICATION_LEVEL ( 'unclassified' ) ;
#203 = EDGE_CURVE ( 'NONE', #56, #28, #153, .T. ) ;
#204 = ORIENTED_EDGE ( 'NONE', *, *, #142, .F. ) ;
#205 = PRODUCT_RELATED_PRODUCT_CATEGORY ( 'detail', '', ( #200 ) ) ;
#206 = CARTESIAN_POINT ( 'NONE',  ( 47.00000000000000000, 9.184850993605147944E-16, -7.499999999999999112 ) ) ;
#207 = VECTOR ( 'NONE', #275, 999.9999999999998863 ) ;
#208 = DIRECTION ( 'NONE',  ( 0.000000000000000000, 0.000000000000000000, 1.000000000000000000 ) ) ;
#209 = CARTESIAN_POINT ( 'NONE',  ( 50.00000000000000000, 0.000000000000000000, 6.696152422706628471 ) ) ;
#210 = CARTESIAN_POINT ( 'NONE',  ( 50.00000000000000000, 0.000000000000000000, 0.000000000000000000 ) ) ;
#211 = DIRECTION ( 'NONE',  ( 1.000000000000000000, 0.000000000000000000, 0.000000000000000000 ) ) ;
#212 = CARTESIAN_POINT ( 'NONE',  ( 50.00000000000000000, 0.000000000000000000, 0.000000000000000000 ) ) ;
#213 = CALENDAR_DATE ( 2022, 13, 4 ) ;
#214 = ADVANCED_FACE ( 'NONE', ( #24 ), #73, .T. ) ;
#215 = PERSON_AND_ORGANIZATION_ROLE ( 'classification_officer' ) ;
#216 = ORIENTED_EDGE ( 'NONE', *, *, #137, .F. ) ;
#217 = VERTEX_POINT ( 'NONE', #61 ) ;
#218 = DATE_AND_TIME ( #213, #158 ) ;
#219 = AXIS2_PLACEMENT_3D ( 'NONE', #192, #251, #169 ) ;
#220 = EDGE_CURVE ( 'NONE', #33, #144, #180, .T. ) ;
#221 = CARTESIAN_POINT ( 'NONE',  ( 3.000000000000000888, 9.184850993605136112E-16, -7.499999999999985789 ) ) ;
#222 =( GEOMETRIC_REPRESENTATION_CONTEXT ( 3 ) GLOBAL_UNCERTAINTY_ASSIGNED_CONTEXT ( ( #268 ) ) GLOBAL_UNIT_ASSIGNED_CONTEXT ( ( #44, #115, #155 ) ) REPRESENTATION_CONTEXT ( 'NONE', 'WORKASPACE' ) );
#223 = CONICAL_SURFACE ( 'NONE', #17, 6.696152422706628471, 0.2617993877991498519 ) ;
#224 = ORIENTED_EDGE ( 'NONE', *, *, #102, .F. ) ;
#225 = ORIENTED_EDGE ( 'NONE', *, *, #220, .T. ) ;
#226 = DIRECTION ( 'NONE',  ( 0.000000000000000000, 0.000000000000000000, -1.000000000000000000 ) ) ;
#227 = LOCAL_TIME ( 13, 30, 38.00000000000000000, #157 ) ;
#228 = ORIENTED_EDGE ( 'NONE', *, *, #52, .T. ) ;
#229 = DIRECTION ( 'NONE',  ( -1.000000000000000000, -0.000000000000000000, -0.000000000000000000 ) ) ;
#230 = DESIGN_CONTEXT ( 'detailed design', #175, 'design' ) ;
#231 = DIRECTION ( 'NONE',  ( -1.000000000000000000, -0.000000000000000000, -0.000000000000000000 ) ) ;
#232 = CC_DESIGN_PERSON_AND_ORGANIZATION_ASSIGNMENT ( #134, #215, ( #100 ) ) ;
#233 = LINE ( 'NONE', #41, #90 ) ;
#234 = CIRCLE ( 'NONE', #114, 6.696152422706628471 ) ;
#235 = DIRECTION ( 'NONE',  ( 0.000000000000000000, 0.000000000000000000, 1.000000000000000000 ) ) ;
#236 = DIRECTION ( 'NONE',  ( 1.000000000000000000, 0.000000000000000000, 0.000000000000000000 ) ) ;
#237 = ADVANCED_FACE ( 'NONE', ( #127 ), #167, .T. ) ;
#238 = CC_DESIGN_APPROVAL ( #249, ( #162 ) ) ;
#239 = PERSON_AND_ORGANIZATION ( #119, #107 ) ;
#240 = DATE_TIME_ROLE ( 'creation_date' ) ;
#241 = APPROVAL ( #198, 'UNSPECIFIED' ) ;
#242 = AXIS2_PLACEMENT_3D ( 'NONE', #111, #174, #236 ) ;
#243 = PERSON_AND_ORGANIZATION ( #119, #107 ) ;
#244 = EDGE_LOOP ( 'NONE', ( #267, #89, #70, #141 ) ) ;
#245 = ORIENTED_EDGE ( 'NONE', *, *, #112, .T. ) ;
#246 = ADVANCED_BREP_SHAPE_REPRESENTATION ( 'parallel pin unhardened_iso', ( #66, #242 ), #222 ) ;
#247 = EDGE_LOOP ( 'NONE', ( #185, #76 ) ) ;
#248 = ORIENTED_EDGE ( 'NONE', *, *, #137, .T. ) ;
#249 = APPROVAL ( #136, 'UNSPECIFIED' ) ;
#250 = LINE ( 'NONE', #63, #207 ) ;
#251 = DIRECTION ( 'NONE',  ( -1.000000000000000000, -0.000000000000000000, -0.000000000000000000 ) ) ;
#252 = ADVANCED_FACE ( 'NONE', ( #20 ), #101, .F. ) ;
#253 = DIRECTION ( 'NONE',  ( 0.000000000000000000, 0.000000000000000000, 1.000000000000000000 ) ) ;
#254 = CARTESIAN_POINT ( 'NONE',  ( 0.000000000000000000, 0.000000000000000000, -6.696152422706637353 ) ) ;
#255 = LINE ( 'NONE', #193, #65 ) ;
#256 = DIRECTION ( 'NONE',  ( -1.000000000000000000, 0.000000000000000000, -0.000000000000000000 ) ) ;
#257 = CALENDAR_DATE ( 2022, 13, 4 ) ;
#258 = APPROVAL_PERSON_ORGANIZATION ( #47, #249, #67 ) ;
#259 = AXIS2_PLACEMENT_3D ( 'NONE', #145, #211, #168 ) ;
#260 = DATE_TIME_ROLE ( 'classification_date' ) ;
#261 = ORIENTED_EDGE ( 'NONE', *, *, #142, .T. ) ;
#262 = DATE_AND_TIME ( #178, #227 ) ;
#263 = CC_DESIGN_SECURITY_CLASSIFICATION ( #100, ( #162 ) ) ;
#264 = ORIENTED_EDGE ( 'NONE', *, *, #203, .F. ) ;
#265 = EDGE_CURVE ( 'NONE', #120, #144, #151, .T. ) ;
#266 = CARTESIAN_POINT ( 'NONE',  ( -6.349999999999999645, 0.000000000000000000, 0.000000000000000000 ) ) ;
#267 = ORIENTED_EDGE ( 'NONE', *, *, #154, .F. ) ;
#268 = UNCERTAINTY_MEASURE_WITH_UNIT (LENGTH_MEASURE( 1.000000000000000082E-05 ), #44, 'distance_accuracy_value', 'NONE');
#269 = DIRECTION ( 'NONE',  ( -1.000000000000000000, -0.000000000000000000, -0.000000000000000000 ) ) ;
#270 = CARTESIAN_POINT ( 'NONE',  ( 2.038062314986572743E-17, 6.696152422706637353, 0.000000000000000000 ) ) ;
#271 = DIRECTION ( 'NONE',  ( -1.000000000000000000, -0.000000000000000000, -0.000000000000000000 ) ) ;
#272 = CC_DESIGN_PERSON_AND_ORGANIZATION_ASSIGNMENT ( #239, #46, ( #162 ) ) ;
#273 = CARTESIAN_POINT ( 'NONE',  ( 47.00000000000000000, 0.000000000000000000, 0.000000000000000000 ) ) ;
#274 = DIRECTION ( 'NONE',  ( -1.000000000000000000, -0.000000000000000000, -0.000000000000000000 ) ) ;
#275 = DIRECTION ( 'NONE',  ( 0.9659258262890699775, 3.169619151431692834E-17, 0.2588190451025147998 ) ) ;
ENDSEC;
END-ISO-10303-21;
