ISO-10303-21;
HEADER;
FILE_DESCRIPTION (( 'STEP AP203' ),
    '1' );
FILE_NAME ('parallel pin unhardened_iso - 15.STEP',
    '2022-04-13T08:03:47',
    ( '' ),
    ( '' ),
    'SwSTEP 2.0',
    'SolidWorks 2021',
    '' );
FILE_SCHEMA (( 'CONFIG_CONTROL_DESIGN' ));
ENDSEC;

DATA;
#1 = CARTESIAN_POINT ( 'NONE',  ( -6.349999999999999645, 0.000000000000000000, 0.000000000000000000 ) ) ;
#2 = CC_DESIGN_PERSON_AND_ORGANIZATION_ASSIGNMENT ( #234, #259, ( #44 ) ) ;
#3 =( NAMED_UNIT ( * ) PLANE_ANGLE_UNIT ( ) SI_UNIT ( $, .RADIAN. ) );
#4 = FACE_OUTER_BOUND ( 'NONE', #188, .T. ) ;
#5 = FACE_OUTER_BOUND ( 'NONE', #223, .T. ) ;
#6 = CARTESIAN_POINT ( 'NONE',  ( 15.00000000000000178, 0.000000000000000000, 4.464101615137752610 ) ) ;
#7 = VECTOR ( 'NONE', #85, 1000.000000000000000 ) ;
#8 = APPROVAL_STATUS ( 'not_yet_approved' ) ;
#9 = DIRECTION ( 'NONE',  ( 0.000000000000000000, 0.000000000000000000, 1.000000000000000000 ) ) ;
#10 = AXIS2_PLACEMENT_3D ( 'NONE', #140, #186, #191 ) ;
#11 = DESIGN_CONTEXT ( 'detailed design', #89, 'design' ) ;
#12 = EDGE_CURVE ( 'NONE', #273, #20, #23, .T. ) ;
#13 = AXIS2_PLACEMENT_3D ( 'NONE', #176, #235, #9 ) ;
#14 = DIRECTION ( 'NONE',  ( 0.000000000000000000, 0.000000000000000000, -1.000000000000000000 ) ) ;
#15 = CARTESIAN_POINT ( 'NONE',  ( 15.00000000000000178, 0.000000000000000000, 0.000000000000000000 ) ) ;
#16 = ORIENTED_EDGE ( 'NONE', *, *, #41, .F. ) ;
#17 = APPROVAL ( #219, 'UNSPECIFIED' ) ;
#18 = ORIENTED_EDGE ( 'NONE', *, *, #146, .T. ) ;
#19 = ORIENTED_EDGE ( 'NONE', *, *, #184, .F. ) ;
#20 = VERTEX_POINT ( 'NONE', #125 ) ;
#21 = EDGE_CURVE ( 'NONE', #20, #273, #56, .T. ) ;
#22 = DIRECTION ( 'NONE',  ( -1.000000000000000000, -0.000000000000000000, -0.000000000000000000 ) ) ;
#23 = CIRCLE ( 'NONE', #77, 4.464101615137763268 ) ;
#24 = CARTESIAN_POINT ( 'NONE',  ( -6.349999999999999645, 0.000000000000000000, 4.999999999999997335 ) ) ;
#25 = DIRECTION ( 'NONE',  ( -1.000000000000000000, -0.000000000000000000, -0.000000000000000000 ) ) ;
#26 = ORIENTED_EDGE ( 'NONE', *, *, #32, .T. ) ;
#27 = COORDINATED_UNIVERSAL_TIME_OFFSET ( 5, 30, .AHEAD. ) ;
#28 = VERTEX_POINT ( 'NONE', #208 ) ;
#29 =( LENGTH_UNIT ( ) NAMED_UNIT ( * ) SI_UNIT ( .MILLI., .METRE. ) );
#30 = APPLICATION_CONTEXT ( 'configuration controlled 3d designs of mechanical parts and assemblies' ) ;
#31 = CARTESIAN_POINT ( 'NONE',  ( 15.00000000000000178, 0.000000000000000000, 0.000000000000000000 ) ) ;
#32 = EDGE_CURVE ( 'NONE', #189, #99, #163, .T. ) ;
#33 = AXIS2_PLACEMENT_3D ( 'NONE', #75, #57, #159 ) ;
#34 = APPROVAL_DATE_TIME ( #46, #195 ) ;
#35 = ORIENTED_EDGE ( 'NONE', *, *, #32, .F. ) ;
#36 = CARTESIAN_POINT ( 'NONE',  ( 0.000000000000000000, 0.000000000000000000, 0.000000000000000000 ) ) ;
#37 = ORIENTED_EDGE ( 'NONE', *, *, #68, .F. ) ;
#38 = CARTESIAN_POINT ( 'NONE',  ( 15.00000000000000178, 5.795090874891871726E-16, -4.464101615137752610 ) ) ;
#39 = VERTEX_POINT ( 'NONE', #102 ) ;
#40 = ORIENTED_EDGE ( 'NONE', *, *, #12, .T. ) ;
#41 = EDGE_CURVE ( 'NONE', #39, #91, #122, .T. ) ;
#42 = ORIENTED_EDGE ( 'NONE', *, *, #250, .F. ) ;
#43 = MECHANICAL_CONTEXT ( 'NONE', #30, 'mechanical' ) ;
#44 = PRODUCT_DEFINITION_FORMATION_WITH_SPECIFIED_SOURCE ( 'ANY', '', #62, .NOT_KNOWN. ) ;
#45 = VECTOR ( 'NONE', #217, 1000.000000000000114 ) ;
#46 = DATE_AND_TIME ( #182, #54 ) ;
#47 = ORIENTED_EDGE ( 'NONE', *, *, #250, .T. ) ;
#48 = LINE ( 'NONE', #24, #7 ) ;
#49 = DATE_AND_TIME ( #52, #149 ) ;
#50 = CARTESIAN_POINT ( 'NONE',  ( 2.000000000000000000, 0.000000000000000000, 4.999999999999995559 ) ) ;
#51 = CIRCLE ( 'NONE', #185, 4.464101615137752610 ) ;
#52 = CALENDAR_DATE ( 2022, 13, 4 ) ;
#53 = ADVANCED_FACE ( 'NONE', ( #145 ), #228, .T. ) ;
#54 = LOCAL_TIME ( 13, 33, 47.00000000000000000, #229 ) ;
#55 = APPROVAL_ROLE ( '' ) ;
#56 = CIRCLE ( 'NONE', #10, 4.464101615137763268 ) ;
#57 = DIRECTION ( 'NONE',  ( -1.000000000000000000, -0.000000000000000000, -0.000000000000000000 ) ) ;
#58 = CC_DESIGN_PERSON_AND_ORGANIZATION_ASSIGNMENT ( #258, #116, ( #44 ) ) ;
#59 = ORIENTED_EDGE ( 'NONE', *, *, #80, .T. ) ;
#60 =( NAMED_UNIT ( * ) SI_UNIT ( $, .STERADIAN. ) SOLID_ANGLE_UNIT ( ) );
#61 = DIRECTION ( 'NONE',  ( 0.9659258262890699775, 0.000000000000000000, -0.2588190451025148553 ) ) ;
#62 = PRODUCT ( 'parallel pin unhardened_iso - 15', 'parallel pin unhardened_iso - 15', '', ( #43 ) ) ;
#63 = AXIS2_PLACEMENT_3D ( 'NONE', #120, #22, #86 ) ;
#64 = ORIENTED_EDGE ( 'NONE', *, *, #68, .T. ) ;
#65 = APPROVAL_STATUS ( 'not_yet_approved' ) ;
#66 = CONICAL_SURFACE ( 'NONE', #263, 4.464101615137752610, 0.2617993877991499629 ) ;
#67 = CARTESIAN_POINT ( 'NONE',  ( 2.000000000000000000, 0.000000000000000000, 0.000000000000000000 ) ) ;
#68 = EDGE_CURVE ( 'NONE', #273, #28, #126, .T. ) ;
#69 = CARTESIAN_POINT ( 'NONE',  ( 2.000000000000000000, 0.000000000000000000, 0.000000000000000000 ) ) ;
#70 = SECURITY_CLASSIFICATION_LEVEL ( 'unclassified' ) ;
#71 = DIRECTION ( 'NONE',  ( 0.000000000000000000, 0.000000000000000000, 1.000000000000000000 ) ) ;
#72 = ADVANCED_FACE ( 'NONE', ( #183 ), #90, .T. ) ;
#73 = CALENDAR_DATE ( 2022, 13, 4 ) ;
#74 = APPROVAL_DATE_TIME ( #94, #17 ) ;
#75 = CARTESIAN_POINT ( 'NONE',  ( 15.00000000000000178, 0.000000000000000000, 0.000000000000000000 ) ) ;
#76 = LOCAL_TIME ( 13, 33, 47.00000000000000000, #137 ) ;
#77 = AXIS2_PLACEMENT_3D ( 'NONE', #268, #144, #105 ) ;
#78 = APPLICATION_PROTOCOL_DEFINITION ( 'international standard', 'config_control_design', 1994, #30 ) ;
#79 = ADVANCED_BREP_SHAPE_REPRESENTATION ( 'parallel pin unhardened_iso - 15', ( #135, #112 ), #196 ) ;
#80 = EDGE_CURVE ( 'NONE', #91, #189, #224, .T. ) ;
#81 = PRODUCT_DEFINITION_SHAPE ( 'NONE', 'NONE',  #221 ) ;
#82 = DIRECTION ( 'NONE',  ( 0.9659258262890699775, 3.169619151431693451E-17, 0.2588190451025148553 ) ) ;
#83 = LOCAL_TIME ( 13, 33, 47.00000000000000000, #136 ) ;
#84 = DIRECTION ( 'NONE',  ( -1.000000000000000000, -0.000000000000000000, -0.000000000000000000 ) ) ;
#85 = DIRECTION ( 'NONE',  ( -1.000000000000000000, -0.000000000000000000, -0.000000000000000000 ) ) ;
#86 = DIRECTION ( 'NONE',  ( 0.000000000000000000, 0.000000000000000000, 1.000000000000000000 ) ) ;
#87 = ORIENTED_EDGE ( 'NONE', *, *, #184, .T. ) ;
#88 = CIRCLE ( 'NONE', #100, 4.999999999999995559 ) ;
#89 = APPLICATION_CONTEXT ( 'configuration controlled 3d designs of mechanical parts and assemblies' ) ;
#90 = CYLINDRICAL_SURFACE ( 'NONE', #97, 4.999999999999997335 ) ;
#91 = VERTEX_POINT ( 'NONE', #38 ) ;
#92 = DIRECTION ( 'NONE',  ( 0.000000000000000000, 0.000000000000000000, 1.000000000000000000 ) ) ;
#93 = CARTESIAN_POINT ( 'NONE',  ( 15.00000000000000000, 2.755455298081544383E-15, 0.000000000000000000 ) ) ;
#94 = DATE_AND_TIME ( #134, #76 ) ;
#95 = CARTESIAN_POINT ( 'NONE',  ( 2.000000000000000000, 0.000000000000000000, 0.000000000000000000 ) ) ;
#96 = CARTESIAN_POINT ( 'NONE',  ( 15.00000000000000178, 0.000000000000000000, 0.000000000000000000 ) ) ;
#97 = AXIS2_PLACEMENT_3D ( 'NONE', #1, #84, #142 ) ;
#98 = CC_DESIGN_PERSON_AND_ORGANIZATION_ASSIGNMENT ( #129, #212, ( #221 ) ) ;
#99 = VERTEX_POINT ( 'NONE', #207 ) ;
#100 = AXIS2_PLACEMENT_3D ( 'NONE', #69, #198, #71 ) ;
#101 = ORIENTED_EDGE ( 'NONE', *, *, #127, .T. ) ;
#102 = CARTESIAN_POINT ( 'NONE',  ( 15.00000000000000178, 0.000000000000000000, 4.464101615137752610 ) ) ;
#103 = ORIENTED_EDGE ( 'NONE', *, *, #118, .T. ) ;
#104 = VERTEX_POINT ( 'NONE', #50 ) ;
#105 = DIRECTION ( 'NONE',  ( 0.000000000000000000, 0.000000000000000000, 1.000000000000000000 ) ) ;
#106 = FACE_OUTER_BOUND ( 'NONE', #203, .T. ) ;
#107 = PRODUCT_RELATED_PRODUCT_CATEGORY ( 'detail', '', ( #62 ) ) ;
#108 = APPROVAL ( #8, 'UNSPECIFIED' ) ;
#109 = DATE_AND_TIME ( #253, #265 ) ;
#110 = FACE_OUTER_BOUND ( 'NONE', #173, .T. ) ;
#111 = DIRECTION ( 'NONE',  ( -0.000000000000000000, 0.000000000000000000, 1.000000000000000000 ) ) ;
#112 = AXIS2_PLACEMENT_3D ( 'NONE', #36, #174, #175 ) ;
#113 = UNCERTAINTY_MEASURE_WITH_UNIT (LENGTH_MEASURE( 1.000000000000000082E-05 ), #29, 'distance_accuracy_value', 'NONE');
#114 = VECTOR ( 'NONE', #61, 999.9999999999998863 ) ;
#115 = CC_DESIGN_APPROVAL ( #108, ( #44 ) ) ;
#116 = PERSON_AND_ORGANIZATION_ROLE ( 'creator' ) ;
#117 = ADVANCED_FACE ( 'NONE', ( #110 ), #128, .F. ) ;
#118 = EDGE_CURVE ( 'NONE', #39, #99, #215, .T. ) ;
#119 = APPROVAL_ROLE ( '' ) ;
#120 = CARTESIAN_POINT ( 'NONE',  ( 13.00000000000000000, 0.000000000000000000, 0.000000000000000000 ) ) ;
#121 = EDGE_LOOP ( 'NONE', ( #42, #124, #64, #274 ) ) ;
#122 = CIRCLE ( 'NONE', #200, 4.464101615137752610 ) ;
#123 = ORIENTED_EDGE ( 'NONE', *, *, #21, .F. ) ;
#124 = ORIENTED_EDGE ( 'NONE', *, *, #12, .F. ) ;
#125 = CARTESIAN_POINT ( 'NONE',  ( 0.000000000000000000, 5.795090874891876656E-16, 4.464101615137763268 ) ) ;
#126 = LINE ( 'NONE', #275, #114 ) ;
#127 = EDGE_CURVE ( 'NONE', #99, #189, #148, .T. ) ;
#128 = PLANE ( 'NONE',  #138 ) ;
#129 = PERSON_AND_ORGANIZATION ( #248, #161 ) ;
#130 = EDGE_LOOP ( 'NONE', ( #167, #26, #247, #245 ) ) ;
#131 = DIRECTION ( 'NONE',  ( 1.000000000000000000, 0.000000000000000000, 0.000000000000000000 ) ) ;
#132 = LINE ( 'NONE', #254, #246 ) ;
#133 = APPROVAL_ROLE ( '' ) ;
#134 = CALENDAR_DATE ( 2022, 13, 4 ) ;
#135 = MANIFOLD_SOLID_BREP ( 'Base-Revolve', #170 ) ;
#136 = COORDINATED_UNIVERSAL_TIME_OFFSET ( 5, 30, .AHEAD. ) ;
#137 = COORDINATED_UNIVERSAL_TIME_OFFSET ( 5, 30, .AHEAD. ) ;
#138 = AXIS2_PLACEMENT_3D ( 'NONE', #93, #256, #111 ) ;
#139 = APPLICATION_PROTOCOL_DEFINITION ( 'international standard', 'config_control_design', 1994, #89 ) ;
#140 = CARTESIAN_POINT ( 'NONE',  ( 0.000000000000000000, 0.000000000000000000, 0.000000000000000000 ) ) ;
#141 = ORIENTED_EDGE ( 'NONE', *, *, #231, .F. ) ;
#142 = DIRECTION ( 'NONE',  ( 0.000000000000000000, 0.000000000000000000, 1.000000000000000000 ) ) ;
#143 = AXIS2_PLACEMENT_3D ( 'NONE', #181, #204, #92 ) ;
#144 = DIRECTION ( 'NONE',  ( -1.000000000000000000, -0.000000000000000000, -0.000000000000000000 ) ) ;
#145 = FACE_OUTER_BOUND ( 'NONE', #121, .T. ) ;
#146 = EDGE_CURVE ( 'NONE', #189, #28, #132, .T. ) ;
#147 = CC_DESIGN_APPROVAL ( #17, ( #269 ) ) ;
#148 = CIRCLE ( 'NONE', #13, 4.999999999999999112 ) ;
#149 = LOCAL_TIME ( 13, 33, 47.00000000000000000, #218 ) ;
#150 = DIRECTION ( 'NONE',  ( -1.000000000000000000, -0.000000000000000000, -0.000000000000000000 ) ) ;
#151 = EDGE_LOOP ( 'NONE', ( #232, #249, #103, #35 ) ) ;
#152 = LINE ( 'NONE', #233, #239 ) ;
#153 = PERSON_AND_ORGANIZATION ( #248, #161 ) ;
#154 = SHAPE_DEFINITION_REPRESENTATION ( #81, #79 ) ;
#155 = CARTESIAN_POINT ( 'NONE',  ( 13.00000000000000000, 6.123233995736765296E-16, -4.999999999999999112 ) ) ;
#156 = CIRCLE ( 'NONE', #237, 4.999999999999995559 ) ;
#157 = CC_DESIGN_PERSON_AND_ORGANIZATION_ASSIGNMENT ( #153, #257, ( #269 ) ) ;
#158 = AXIS2_PLACEMENT_3D ( 'NONE', #164, #131, #14 ) ;
#159 = DIRECTION ( 'NONE',  ( 0.000000000000000000, 0.000000000000000000, 1.000000000000000000 ) ) ;
#160 = PERSON_AND_ORGANIZATION ( #248, #161 ) ;
#161 = ORGANIZATION ( 'UNSPECIFIED', 'UNSPECIFIED', '' ) ;
#162 = CONICAL_SURFACE ( 'NONE', #33, 4.464101615137752610, 0.2617993877991499629 ) ;
#163 = CIRCLE ( 'NONE', #63, 4.999999999999999112 ) ;
#164 = CARTESIAN_POINT ( 'NONE',  ( 2.620133485876527328E-17, 4.464101615137763268, 0.000000000000000000 ) ) ;
#165 = CARTESIAN_POINT ( 'NONE',  ( 15.00000000000000178, 5.466947754046978155E-16, -4.464101615137752610 ) ) ;
#166 = DIRECTION ( 'NONE',  ( 1.000000000000000000, 0.000000000000000000, 0.000000000000000000 ) ) ;
#167 = ORIENTED_EDGE ( 'NONE', *, *, #146, .F. ) ;
#168 = ORIENTED_EDGE ( 'NONE', *, *, #118, .F. ) ;
#169 = APPROVAL_PERSON_ORGANIZATION ( #255, #17, #55 ) ;
#170 = CLOSED_SHELL ( 'NONE', ( #240, #72, #202, #260, #117, #213, #264, #53 ) ) ;
#171 = DIRECTION ( 'NONE',  ( 0.000000000000000000, 0.000000000000000000, 1.000000000000000000 ) ) ;
#172 = EDGE_CURVE ( 'NONE', #91, #39, #51, .T. ) ;
#173 = EDGE_LOOP ( 'NONE', ( #16, #214 ) ) ;
#174 = DIRECTION ( 'NONE',  ( 0.000000000000000000, 0.000000000000000000, 1.000000000000000000 ) ) ;
#175 = DIRECTION ( 'NONE',  ( 1.000000000000000000, 0.000000000000000000, 0.000000000000000000 ) ) ;
#176 = CARTESIAN_POINT ( 'NONE',  ( 13.00000000000000000, 0.000000000000000000, 0.000000000000000000 ) ) ;
#177 = APPROVAL_DATE_TIME ( #236, #108 ) ;
#178 = CC_DESIGN_DATE_AND_TIME_ASSIGNMENT ( #109, #266, ( #221 ) ) ;
#179 = DATE_TIME_ROLE ( 'classification_date' ) ;
#180 = DIRECTION ( 'NONE',  ( 0.000000000000000000, 0.000000000000000000, 1.000000000000000000 ) ) ;
#181 = CARTESIAN_POINT ( 'NONE',  ( -6.349999999999999645, 0.000000000000000000, 0.000000000000000000 ) ) ;
#182 = CALENDAR_DATE ( 2022, 13, 4 ) ;
#183 = FACE_OUTER_BOUND ( 'NONE', #226, .T. ) ;
#184 = EDGE_CURVE ( 'NONE', #104, #28, #88, .T. ) ;
#185 = AXIS2_PLACEMENT_3D ( 'NONE', #31, #216, #211 ) ;
#186 = DIRECTION ( 'NONE',  ( -1.000000000000000000, -0.000000000000000000, -0.000000000000000000 ) ) ;
#187 = DIRECTION ( 'NONE',  ( 0.000000000000000000, 0.000000000000000000, -1.000000000000000000 ) ) ;
#188 = EDGE_LOOP ( 'NONE', ( #209, #59, #271, #168 ) ) ;
#189 = VERTEX_POINT ( 'NONE', #155 ) ;
#190 = CONICAL_SURFACE ( 'NONE', #206, 4.999999999999995559, 0.2617993877991433016 ) ;
#191 = DIRECTION ( 'NONE',  ( 0.000000000000000000, 0.000000000000000000, 1.000000000000000000 ) ) ;
#192 = PLANE ( 'NONE',  #158 ) ;
#193 = DIRECTION ( 'NONE',  ( 0.000000000000000000, 0.000000000000000000, 1.000000000000000000 ) ) ;
#194 = CYLINDRICAL_SURFACE ( 'NONE', #143, 4.999999999999997335 ) ;
#195 = APPROVAL ( #65, 'UNSPECIFIED' ) ;
#196 =( GEOMETRIC_REPRESENTATION_CONTEXT ( 3 ) GLOBAL_UNCERTAINTY_ASSIGNED_CONTEXT ( ( #113 ) ) GLOBAL_UNIT_ASSIGNED_CONTEXT ( ( #29, #3, #60 ) ) REPRESENTATION_CONTEXT ( 'NONE', 'WORKASPACE' ) );
#197 = EDGE_CURVE ( 'NONE', #28, #104, #156, .T. ) ;
#198 = DIRECTION ( 'NONE',  ( -1.000000000000000000, -0.000000000000000000, -0.000000000000000000 ) ) ;
#199 = CC_DESIGN_SECURITY_CLASSIFICATION ( #269, ( #44 ) ) ;
#200 = AXIS2_PLACEMENT_3D ( 'NONE', #15, #244, #171 ) ;
#201 = DIRECTION ( 'NONE',  ( 0.000000000000000000, 0.000000000000000000, -1.000000000000000000 ) ) ;
#202 = ADVANCED_FACE ( 'NONE', ( #4 ), #66, .T. ) ;
#203 = EDGE_LOOP ( 'NONE', ( #40, #225 ) ) ;
#204 = DIRECTION ( 'NONE',  ( -1.000000000000000000, -0.000000000000000000, -0.000000000000000000 ) ) ;
#205 = DIRECTION ( 'NONE',  ( 1.000000000000000000, 0.000000000000000000, 0.000000000000000000 ) ) ;
#206 = AXIS2_PLACEMENT_3D ( 'NONE', #67, #166, #201 ) ;
#207 = CARTESIAN_POINT ( 'NONE',  ( 13.00000000000000000, 0.000000000000000000, 4.999999999999999112 ) ) ;
#208 = CARTESIAN_POINT ( 'NONE',  ( 2.000000000000000000, 6.123233995736762338E-16, -4.999999999999995559 ) ) ;
#209 = ORIENTED_EDGE ( 'NONE', *, *, #41, .T. ) ;
#210 = APPROVAL_PERSON_ORGANIZATION ( #241, #108, #133 ) ;
#211 = DIRECTION ( 'NONE',  ( 0.000000000000000000, 0.000000000000000000, 1.000000000000000000 ) ) ;
#212 = PERSON_AND_ORGANIZATION_ROLE ( 'creator' ) ;
#213 = ADVANCED_FACE ( 'NONE', ( #261 ), #162, .T. ) ;
#214 = ORIENTED_EDGE ( 'NONE', *, *, #172, .F. ) ;
#215 = LINE ( 'NONE', #6, #45 ) ;
#216 = DIRECTION ( 'NONE',  ( -1.000000000000000000, -0.000000000000000000, -0.000000000000000000 ) ) ;
#217 = DIRECTION ( 'NONE',  ( -0.9659258262890680902, 0.000000000000000000, 0.2588190451025212391 ) ) ;
#218 = COORDINATED_UNIVERSAL_TIME_OFFSET ( 5, 30, .AHEAD. ) ;
#219 = APPROVAL_STATUS ( 'not_yet_approved' ) ;
#220 = AXIS2_PLACEMENT_3D ( 'NONE', #227, #205, #187 ) ;
#221 = PRODUCT_DEFINITION ( 'UNKNOWN', '', #44, #11 ) ;
#222 = PERSON_AND_ORGANIZATION ( #248, #161 ) ;
#223 = EDGE_LOOP ( 'NONE', ( #123, #47, #87, #37 ) ) ;
#224 = LINE ( 'NONE', #165, #267 ) ;
#225 = ORIENTED_EDGE ( 'NONE', *, *, #21, .T. ) ;
#226 = EDGE_LOOP ( 'NONE', ( #101, #18, #19, #141 ) ) ;
#227 = CARTESIAN_POINT ( 'NONE',  ( 2.000000000000000000, 0.000000000000000000, 0.000000000000000000 ) ) ;
#228 = CONICAL_SURFACE ( 'NONE', #220, 4.999999999999995559, 0.2617993877991433016 ) ;
#229 = COORDINATED_UNIVERSAL_TIME_OFFSET ( 5, 30, .AHEAD. ) ;
#230 = APPROVAL_PERSON_ORGANIZATION ( #222, #195, #119 ) ;
#231 = EDGE_CURVE ( 'NONE', #99, #104, #48, .T. ) ;
#232 = ORIENTED_EDGE ( 'NONE', *, *, #80, .F. ) ;
#233 = CARTESIAN_POINT ( 'NONE',  ( 2.000000000000000000, 6.123233995736761352E-16, 4.999999999999995559 ) ) ;
#234 = PERSON_AND_ORGANIZATION ( #248, #161 ) ;
#235 = DIRECTION ( 'NONE',  ( -1.000000000000000000, -0.000000000000000000, -0.000000000000000000 ) ) ;
#236 = DATE_AND_TIME ( #73, #83 ) ;
#237 = AXIS2_PLACEMENT_3D ( 'NONE', #95, #25, #193 ) ;
#238 = CC_DESIGN_APPROVAL ( #195, ( #221 ) ) ;
#239 = VECTOR ( 'NONE', #82, 999.9999999999998863 ) ;
#240 = ADVANCED_FACE ( 'NONE', ( #5 ), #190, .T. ) ;
#241 = PERSON_AND_ORGANIZATION ( #248, #161 ) ;
#242 = DIRECTION ( 'NONE',  ( -0.9659258262890680902, 3.169619151431771721E-17, -0.2588190451025212391 ) ) ;
#243 = CARTESIAN_POINT ( 'NONE',  ( 0.000000000000000000, 0.000000000000000000, -4.464101615137763268 ) ) ;
#244 = DIRECTION ( 'NONE',  ( -1.000000000000000000, -0.000000000000000000, -0.000000000000000000 ) ) ;
#245 = ORIENTED_EDGE ( 'NONE', *, *, #197, .F. ) ;
#246 = VECTOR ( 'NONE', #150, 1000.000000000000000 ) ;
#247 = ORIENTED_EDGE ( 'NONE', *, *, #231, .T. ) ;
#248 = PERSON ( 'UNSPECIFIED', 'UNSPECIFIED', 'UNSPECIFIED', ('UNSPECIFIED'), ('UNSPECIFIED'), ('UNSPECIFIED') ) ;
#249 = ORIENTED_EDGE ( 'NONE', *, *, #172, .T. ) ;
#250 = EDGE_CURVE ( 'NONE', #20, #104, #152, .T. ) ;
#251 = PERSON_AND_ORGANIZATION_ROLE ( 'design_owner' ) ;
#252 = CC_DESIGN_DATE_AND_TIME_ASSIGNMENT ( #49, #179, ( #269 ) ) ;
#253 = CALENDAR_DATE ( 2022, 13, 4 ) ;
#254 = CARTESIAN_POINT ( 'NONE',  ( -6.349999999999999645, 6.123233995736763324E-16, -4.999999999999997335 ) ) ;
#255 = PERSON_AND_ORGANIZATION ( #248, #161 ) ;
#256 = DIRECTION ( 'NONE',  ( -1.000000000000000000, 0.000000000000000000, -0.000000000000000000 ) ) ;
#257 = PERSON_AND_ORGANIZATION_ROLE ( 'classification_officer' ) ;
#258 = PERSON_AND_ORGANIZATION ( #248, #161 ) ;
#259 = PERSON_AND_ORGANIZATION_ROLE ( 'design_supplier' ) ;
#260 = ADVANCED_FACE ( 'NONE', ( #106 ), #192, .F. ) ;
#261 = FACE_OUTER_BOUND ( 'NONE', #151, .T. ) ;
#262 = DIRECTION ( 'NONE',  ( -1.000000000000000000, -0.000000000000000000, -0.000000000000000000 ) ) ;
#263 = AXIS2_PLACEMENT_3D ( 'NONE', #96, #262, #180 ) ;
#264 = ADVANCED_FACE ( 'NONE', ( #270 ), #194, .T. ) ;
#265 = LOCAL_TIME ( 13, 33, 47.00000000000000000, #27 ) ;
#266 = DATE_TIME_ROLE ( 'creation_date' ) ;
#267 = VECTOR ( 'NONE', #242, 1000.000000000000114 ) ;
#268 = CARTESIAN_POINT ( 'NONE',  ( 0.000000000000000000, 0.000000000000000000, 0.000000000000000000 ) ) ;
#269 = SECURITY_CLASSIFICATION ( '', '', #70 ) ;
#270 = FACE_OUTER_BOUND ( 'NONE', #130, .T. ) ;
#271 = ORIENTED_EDGE ( 'NONE', *, *, #127, .F. ) ;
#272 = CC_DESIGN_PERSON_AND_ORGANIZATION_ASSIGNMENT ( #160, #251, ( #62 ) ) ;
#273 = VERTEX_POINT ( 'NONE', #243 ) ;
#274 = ORIENTED_EDGE ( 'NONE', *, *, #197, .T. ) ;
#275 = CARTESIAN_POINT ( 'NONE',  ( 2.000000000000000000, 0.000000000000000000, -4.999999999999995559 ) ) ;
ENDSEC;
END-ISO-10303-21;
